<svg aria-hidden="true" style="position:absolute;width:0;height:0;overflow:hidden" xmlns="http://www.w3.org/2000/svg">
  <defs>
    <symbol id="icon-close" viewBox="0 0 32 32">
      <path d="M19.141 16.123 29.817 5.455a2.196 2.196 0 0 0-3.098-3.095L16.043 12.918 5.301 2.184a2.202 2.202 0 0 0-2.983.115 2.193 2.193 0 0 0-.115 2.98l10.72 10.844L2.422 26.484a2.203 2.203 0 0 0-.767 1.582c-.012.302.039.604.15.885.11.282.278.538.492.751s.47.381.752.492a2.203 2.203 0 0 0 2.47-.615l10.479-10.471 10.413 10.405a2.202 2.202 0 0 0 2.983-.115 2.194 2.194 0 0 0 .115-2.979L19.14 16.124z"/>
    </symbol>
    <symbol id="icon-menu" viewBox="0 0 32 32">
      <path d="M2.666 8A1.335 1.335 0 0 1 4 6.666h24A1.33 1.33 0 0 1 29.333 8 1.333 1.333 0 0 1 28 9.334H4A1.335 1.335 0 0 1 2.666 8zm0 8.043A1.33 1.33 0 0 1 4 14.71h24a1.333 1.333 0 1 1 0 2.666H4a1.333 1.333 0 0 1-1.334-1.333zM4 22.752a1.337 1.337 0 0 0-1.334 1.333A1.33 1.33 0 0 0 4 25.418h24a1.333 1.333 0 1 0 0-2.666H4z"/>
    </symbol>
    <symbol id="icon-next" viewBox="0 0 18 32">
      <path d="M17.653 15.035 2.792.875a1.334 1.334 0 0 0-1.84 0L.936.891a1.222 1.222 0 0 0-.282 1.373c.065.153.162.291.282.405l13.995 13.333L.936 29.33a1.212 1.212 0 0 0-.381.889 1.236 1.236 0 0 0 .381.889l.016.016a1.334 1.334 0 0 0 1.84 0l14.861-14.16a1.331 1.331 0 0 0 0-1.93z"/>
    </symbol>
    <symbol id="icon-prev" viewBox="0 0 18 32">
      <path d="m.48 16.965 14.861 14.16a1.334 1.334 0 0 0 1.84 0l.016-.016a1.237 1.237 0 0 0 .382-.889 1.22 1.22 0 0 0-.382-.889L3.202 15.998 17.197 2.67a1.222 1.222 0 0 0 .282-1.373 1.231 1.231 0 0 0-.282-.405l-.016-.016a1.336 1.336 0 0 0-1.84 0L.48 15.036a1.331 1.331 0 0 0 0 1.93z"/>
    </symbol>

    <symbol id="icon-photo-modal" viewBox="0 0 18 18">
     <path d="m13.996 11.123-1.838-.21a1.44 1.44 0 0 0-1.187.412l-1.332 1.332a10.888 10.888 0 0 1-4.769-4.77L6.21 6.55a1.44 1.44 0 0 0 .412-1.187l-.21-1.824a1.448 1.448 0 0 0-1.44-1.28H3.72c-.818 0-1.498.68-1.448 1.497.384 6.18 5.327 11.116 11.5 11.5.817.05 1.498-.63 1.498-1.448v-1.252a1.434 1.434 0 0 0-1.274-1.432Z"/>
    </symbol>

    <symbol id="icon-person-modal" viewBox="0 0 18 18">
     <path d="M9 9a3 3 0 1 0 0-6 3 3 0 1 0 0 6Zm0 1.5c-2.003 0-6 1.005-6 3v.75c0 .412.337.75.75.75h10.5c.412 0 .75-.338.75-.75v-.75c0-1.995-3.998-3-6-3Z"/>
    </symbol>

    <symbol id="icon-email-modal" viewBox="0 0 18 18">
     <path d="M15 3H3c-.825 0-1.492.675-1.492 1.5l-.008 9c0 .825.675 1.5 1.5 1.5h12c.825 0 1.5-.675 1.5-1.5v-9c0-.825-.675-1.5-1.5-1.5Zm-.3 3.188L9.398 9.502a.759.759 0 0 1-.796 0L3.3 6.188a.637.637 0 1 1 .675-1.08L9 8.25l5.025-3.143a.637.637 0 1 1 .675 1.08Z"/>
    </symbol>
  

    <symbol id="icon-error-validation" viewBox="0 0 12 12">
      <path d="M6 4.28571V6.85713" stroke="#FF705D" stroke-width="0.857143" stroke-linecap="round" stroke-linejoin="round"/>
      <path d="M6.00084 9.85714C6.23753 9.85714 6.42941 9.66526 6.42941 9.42857C6.42941 9.19188 6.23753 9 6.00084 9C5.76414 9 5.57227 9.19188 5.57227 9.42857C5.57227 9.66526 5.76414 9.85714 6.00084 9.85714Z" stroke="#FF705D" stroke-width="0.857143" stroke-linecap="round" stroke-linejoin="round"/>
      <path d="M6.76333 0.899913C6.6914 0.759512 6.58212 0.641685 6.44752 0.559407C6.31292 0.47713 6.15823 0.433594 6.00048 0.433594C5.84272 0.433594 5.68803 0.47713 5.55343 0.559407C5.41883 0.641685 5.30955 0.759512 5.23762 0.899913L0.523333 10.3285C0.457581 10.459 0.426277 10.6041 0.432392 10.7501C0.438507 10.8961 0.481839 11.0381 0.558272 11.1626C0.634706 11.2871 0.741703 11.39 0.869104 11.4616C0.996504 11.5331 1.14008 11.5709 1.28619 11.5713H10.7148C10.8609 11.5709 11.0044 11.5331 11.1318 11.4616C11.2592 11.39 11.3662 11.2871 11.4427 11.1626C11.5191 11.0381 11.5624 10.8961 11.5686 10.7501C11.5747 10.6041 11.5434 10.459 11.4776 10.3285L6.76333 0.899913Z" stroke="#FF705D" stroke-width="0.857143" stroke-linecap="round" stroke-linejoin="round"/>
    </symbol>

  
  </defs>
</svg>
